PathFileType	4	(X/Y/Z)	./resultDataOpenSim/trcMotMarkerGrf/sub06/qtm-14-06.trc
DataRate	CameraRate	NumFrames	NumMarkers	Units	OrigDataRate	OrigDataStartFrame	OrigNumFrames
250.000000	250.000000	7	24	m	250.000000	331	529
Frame#	Time	L.Toe.Tip			R.Toe.Tip			L.Ankle.Lat			R.Ankle.Lat			L.Ankle.Med			R.Ankle.Med			L.Heel			R.Heel			L.Knee.Lat			R.Knee.Lat			L.Knee.Med			R.Knee.Med			L.Thigh.Upper			R.Thigh.Upper			L.ASIS			R.ASIS			V.Sacral			L.Acromium			R.Acromium			C7			L.Elbow			R.Elbow			L.Wrist.Lat			R.Wrist.Lat
		X1	Y1	Z1	X2	Y2	Z2	X3	Y3	Z3	X4	Y4	Z4	X5	Y5	Z5	X6	Y6	Z6	X7	Y7	Z7	X8	Y8	Z8	X9	Y9	Z9	X10	Y10	Z10	X11	Y11	Z11	X12	Y12	Z12	X13	Y13	Z13	X14	Y14	Z14	X15	Y15	Z15	X16	Y16	Z16	X17	Y17	Z17	X18	Y18	Z18	X19	Y19	Z19	X20	Y20	Z20	X21	Y21	Z21	X22	Y22	Z22	X23	Y23	Z23	X24	Y24	Z24

331	1.32	0.43988965	0.14361397	-0.088513692	0.88771364	0.0350266	0.04337297	0.4570887	0.27507452	-0.11687201	0.75246762	0.060258731	0.072560041	0.48911656	0.27284923	-0.037919208	0.76985103	0.08188674	-0.014908022	0.42487006	0.33458727	-0.05803127	0.69467556	0.040274785	0.01622533	0.80034211	0.40216464	-0.1942239	0.86319979	0.43328687	0.10769032	0.81770858	0.3854778	-0.069000855	0.81964175	0.42834509	-0.012822559	0.69657602	0.77971928	-0.15740331	0.76482026	0.79740483	0.17870536	0.77816632	0.83247564	-0.13145708	0.83632043	0.85197898	0.10906795	0.62387931	0.91606485	0.030257695	0.75113557	1.3267333	-0.18200875	0.78741676	1.3033052	0.17705722	0.69220957	1.3557161	0.0055337234	0.7431287	1.0001545	-0.25182058	0.68902033	1.0062999	0.26517593	0.96178195	0.88248505	-0.22937593	0.85036814	0.8256245	0.31460752
332	1.324	0.45319356	0.14557279	-0.089169402	0.88770298	0.035031845	0.043309417	0.46969533	0.27716865	-0.11730699	0.75247756	0.060363797	0.072558829	0.50201427	0.27494048	-0.038545284	0.76980057	0.082048905	-0.014872528	0.43718921	0.3362545	-0.058353605	0.69464412	0.040436586	0.016247154	0.81221726	0.40587758	-0.19453284	0.86368229	0.43350372	0.10753418	0.82954817	0.38934506	-0.068999107	0.81950432	0.42853174	-0.012986963	0.70397487	0.78216647	-0.15757016	0.77021366	0.79899774	0.17867904	0.78530565	0.83509929	-0.13074777	0.84182101	0.85408541	0.10968383	0.62963963	0.91796241	0.029638726	0.7563775	1.3286708	-0.1821589	0.79285637	1.3059668	0.17686615	0.69766368	1.3575202	0.0050431663	0.7457663	1.002191	-0.25128058	0.697247	1.0079034	0.26577462	0.96260638	0.88109176	-0.23117919	0.86345307	0.83053302	0.31184951
333	1.328	0.46669394	0.14727692	-0.089924009	0.88770244	0.03503593	0.043239164	0.48234678	0.27901801	-0.11779352	0.75249182	0.060456805	0.072543679	0.5148362	0.27685414	-0.039142712	0.76976857	0.082228788	-0.014839637	0.44932676	0.33766237	-0.058538526	0.69462822	0.040616423	0.016254647	0.8239823	0.40959558	-0.19475785	0.8640904	0.43372867	0.10733798	0.84120835	0.3932286	-0.068930168	0.81921952	0.42876574	-0.013137994	0.71137193	0.78466618	-0.15781799	0.77540909	0.80046953	0.17863947	0.79237341	0.83771183	-0.13004315	0.84731523	0.85609361	0.11023921	0.63535243	0.91982333	0.028962701	0.76158528	1.33057	-0.18228607	0.79827761	1.3085981	0.17667926	0.70298151	1.3594276	0.0048056546	0.74841809	1.0042306	-0.25077367	0.70549303	1.0095104	0.26636374	0.96335576	0.87971195	-0.23302464	0.87640147	0.83553708	0.30902701
334	1.332	0.48041289	0.14871999	-0.090748263	0.88770827	0.03503652	0.043167964	0.49502522	0.28062587	-0.11831898	0.75249756	0.060544321	0.072524846	0.52746072	0.27860136	-0.039653437	0.76975999	0.082423211	-0.014815686	0.46131655	0.33883776	-0.05871066	0.69462711	0.040816693	0.016247643	0.83566717	0.41331126	-0.19488383	0.86444012	0.43396981	0.10712685	0.8527072	0.3971142	-0.068798345	0.81893814	0.42905988	-0.013244673	0.71878293	0.78729517	-0.15822928	0.78052443	0.80183915	0.17858671	0.79904393	0.84024138	-0.12940268	0.85279794	0.85798749	0.11073448	0.64104754	0.92164407	0.028300207	0.76674237	1.3324377	-0.18239112	0.80368156	1.3111914	0.17649363	0.70824847	1.3613448	0.0046709938	0.75112387	1.0062898	-0.25033705	0.71375607	1.0111139	0.26693861	0.96400329	0.87833827	-0.23494156	0.88922483	0.84059345	0.3061519
335	1.336	0.49435921	0.14989726	-0.091620525	0.8877173	0.035033082	0.0431003	0.50768615	0.28199442	-0.1188461	0.7525068	0.060643861	0.072508802	0.5399629	0.28016233	-0.040113286	0.76978092	0.082625243	-0.014811522	0.47322236	0.33977873	-0.059023955	0.69464297	0.041030945	0.016214929	0.84728281	0.41702485	-0.19492132	0.8647481	0.43422707	0.10692606	0.86419121	0.40102022	-0.068633312	0.81877835	0.42942762	-0.013339333	0.72620781	0.78997337	-0.15886701	0.78565349	0.80311557	0.17849901	0.80521167	0.84270293	-0.12874097	0.85827118	0.85976239	0.11117275	0.64680691	0.9234278	0.027764656	0.77186373	1.334268	-0.18247731	0.80907316	1.3137381	0.17630839	0.71350906	1.3632199	0.0045487357	0.75390835	1.0083852	-0.24999168	0.72203729	1.0127069	0.26749731	0.96454086	0.87697484	-0.23692927	0.90196044	0.8456878	0.30324089
336	1.34	0.50853182	0.15080896	-0.092528829	0.88772952	0.035027881	0.043037821	0.5203072	0.28311353	-0.11935372	0.75253595	0.060768548	0.072497789	0.55246699	0.28150382	-0.040579451	0.76983306	0.082829615	-0.014832681	0.48507516	0.34045951	-0.059534362	0.6946753	0.041250768	0.016149443	0.85883903	0.42072847	-0.19489153	0.86502562	0.4344928	0.10675378	0.87578059	0.40497182	-0.068455153	0.81864037	0.42988243	-0.013521406	0.73362183	0.79258779	-0.15969355	0.79076727	0.80427399	0.17833477	0.81119576	0.8451646	-0.12794807	0.86374054	0.86142446	0.11156111	0.65273741	0.92517872	0.027483556	0.77698874	1.3360421	-0.18255225	0.8144583	1.3162311	0.17612504	0.71877481	1.3650319	0.0044194985	0.75673628	1.0105085	-0.24970568	0.73034261	1.0142821	0.26804305	0.96499134	0.87562759	-0.23894588	0.9146312	0.85083287	0.30030044
337	1.344	0.52292677	0.15145951	-0.09346258	0.88774804	0.035024326	0.042979865	0.53291071	0.28396209	-0.1198556	0.75259195	0.060917326	0.072489599	0.56503142	0.28259034	-0.041075046	0.76990718	0.083040211	-0.014868734	0.49687321	0.34082977	-0.06017316	0.69471459	0.041483415	0.016070176	0.87033109	0.42441193	-0.19481804	0.86527694	0.43476186	0.1066193	0.88740237	0.40895531	-0.068255143	0.81838144	0.43040625	-0.013847789	0.74099903	0.79511118	-0.16057954	0.7958246	0.80529814	0.17804964	0.81755999	0.84765391	-0.12702894	0.86920491	0.8629795	0.11190618	0.65890011	0.92689	0.027529845	0.78214023	1.3377433	-0.18262489	0.81983994	1.3186651	0.17594602	0.72404468	1.3667705	0.0042908199	0.75952999	1.0126187	-0.24940519	0.7386759	1.0158345	0.26858032	0.96538693	0.87429299	-0.24094606	0.9271967	0.85605051	0.29731943
